<svg width="1307.000000" height="575.522583" viewBox="0 0 1307 575.523" fill="none" xmlns="http://www.w3.org/2000/svg" xmlns:xlink="http://www.w3.org/1999/xlink">
	<desc>
			Created with Pixso.
	</desc>
	<defs/>
	<path id="Vector" d="M440.05 330.98L100.61 330.98L100.61 383.63L440.05 383.63L440.05 330.98Z" fill="#7CE3E1" fill-opacity="1.000000" fill-rule="evenodd"/>
	<path id="Vector" d="M126.17 220.72C153.46 239.62 137.91 281.08 156.58 341.92C163.12 363.22 180.23 418.94 222.35 446.27C281.12 484.4 333.67 431.61 452.73 449.76C502.03 457.28 578.47 479.37 578.17 502.39C577.62 544.8 317.21 564.76 226.25 571.74C122.36 579.71 98.87 574.67 77.2 560.33C-23.13 493.89 -21.19 269.74 57.1 223.39C76.48 211.92 107.06 207.48 126.17 220.72Z" fill="#4761FF" fill-opacity="1.000000" fill-rule="nonzero"/>
	<path id="Vector" d="M457.1 97.97L457.99 97.97C484.76 97.97 506.53 76.2 506.53 49.43L506.53 48.54C506.53 21.77 484.76 0 457.99 0L457.1 0C430.33 0 408.56 21.77 408.56 48.54L408.56 49.43C408.56 76.2 430.33 97.97 457.1 97.97ZM457.99 2C483.65 2 504.52 22.87 504.52 48.53L504.52 49.42C504.52 75.07 483.65 95.95 457.99 95.95L457.1 95.95C431.44 95.95 410.57 75.07 410.57 49.42L410.57 48.53C410.57 22.87 431.44 2 457.1 2L457.99 2Z" fill="#000000" fill-opacity="1.000000" fill-rule="nonzero"/>
	<path id="Vector" d="M450.77 78.44L421.59 45.54L432.32 37.54L450.5 58.03L482.57 20.05L493.5 27.81L450.77 78.44Z" fill="#7CE3E1" fill-opacity="1.000000" fill-rule="nonzero"/>
	<path id="Vector" d="M400.39 454.6C400.39 454.6 435.61 483.91 438.17 494.22C440.73 504.53 365.15 477.89 365.15 477.89L369.47 453.3L400.39 454.6Z" fill="#000000" fill-opacity="1.000000" fill-rule="nonzero"/>
	<path id="Vector" d="M434.92 493.8C436.92 493.8 437.55 493.44 437.94 493.21C438.06 493.14 438.16 493.06 438.24 492.95C438.33 492.85 438.39 492.73 438.42 492.6C438.46 492.47 438.47 492.34 438.45 492.2C438.44 492.07 438.39 491.94 438.33 491.83C438.26 491.71 438.17 491.61 438.07 491.53C437.96 491.45 437.84 491.39 437.71 491.36C437.58 491.32 437.45 491.31 437.31 491.33C437.18 491.35 437.06 491.4 436.94 491.46C432.57 493.97 390.86 482.07 365.6 473.98C365.34 473.9 365.06 473.92 364.83 474.05C364.59 474.17 364.41 474.38 364.33 474.64C364.25 474.89 364.27 475.17 364.39 475.41C364.52 475.65 364.73 475.83 364.98 475.91C365.15 475.96 381.64 481.23 398.7 485.99C421.8 492.42 430.99 493.8 434.92 493.8Z" fill="#FFFFFF" fill-opacity="1.000000" fill-rule="nonzero"/>
	<path id="Vector" d="M401.58 466.75C401.81 466.75 402.04 466.67 402.22 466.52L408.58 461.3C408.78 461.13 408.9 460.88 408.93 460.62C408.95 460.36 408.87 460.1 408.7 459.9C408.53 459.7 408.29 459.57 408.03 459.54C407.77 459.51 407.51 459.58 407.3 459.74L400.94 464.97C400.78 465.1 400.66 465.28 400.61 465.48C400.55 465.68 400.56 465.89 400.63 466.09C400.7 466.28 400.83 466.45 401 466.57C401.17 466.69 401.37 466.75 401.58 466.75Z" fill="#FFFFFF" fill-opacity="1.000000" fill-rule="nonzero"/>
	<path id="Vector" d="M408.53 473.18C408.78 473.18 409.01 473.09 409.2 472.93L415.85 467.05C416.04 466.87 416.16 466.62 416.17 466.36C416.18 466.1 416.09 465.84 415.92 465.64C415.74 465.44 415.5 465.32 415.24 465.3C414.97 465.29 414.72 465.37 414.51 465.54L407.86 471.42C407.71 471.56 407.6 471.74 407.56 471.94C407.51 472.13 407.52 472.34 407.59 472.53C407.66 472.72 407.79 472.89 407.96 473.01C408.13 473.12 408.33 473.18 408.53 473.18Z" fill="#FFFFFF" fill-opacity="1.000000" fill-rule="nonzero"/>
	<path id="Vector" d="M407.75 275.79C407.75 275.79 402.25 273.36 400.33 272.89C381.63 268.34 323.76 264.78 323.76 264.78L323.66 261.37L243.84 258.69L236.17 272.89C236.17 272.89 227.79 292.97 233.45 310.55C239.1 328.13 253.52 331.52 262.55 331.97C269.03 332.29 326.43 332.15 358.25 332.05L351.84 460.72L420.72 460.72L431.13 313.5C431.84 305.53 429.95 297.54 425.73 290.74C421.52 283.94 415.21 278.69 407.75 275.79Z" fill="#FFB64F" fill-opacity="1.000000" fill-rule="evenodd"/>
	<path id="Vector" d="M280.8 295.89L272.61 460.72L341.49 460.72L358.27 294.97L280.8 295.89Z" fill="#FFB64F" fill-opacity="1.000000" fill-rule="evenodd"/>
	<path id="Vector" d="M480.82 96.39C477.77 93.97 473.64 98.83 473.31 99.24C473.62 98.86 476.99 94.61 473.11 93.24C471.04 92.51 468.41 92.97 465.44 97.7C461.35 104.21 457.91 109.94 457.91 109.94C458.74 105.6 460.01 101.35 461.72 97.26C463.31 93.49 461.1 91.72 460.03 91.52C457.38 91.03 455.52 91.67 452.18 98.54C448.84 105.41 447.37 109.59 447.37 109.59C447.37 109.59 429.86 110.24 424 112.66C421.65 113.63 420.11 117.96 419.09 122.81C417.99 128.01 413.29 164.24 410.63 173.47C419.91 176.55 429.25 179.44 438.71 181.93C440.48 182.39 444.64 182.75 444.64 182.75C444.64 182.75 446.39 148.15 447.25 136.64C447.4 134.83 448.03 133.1 449.07 131.62C450.11 130.13 451.52 128.95 453.17 128.19C460.59 124.69 472.39 119.74 473.19 118.77C475.7 115.75 479.24 109.26 481.31 102.27C482.49 98.36 481.87 97.22 480.82 96.39Z" fill="#FFAE99" fill-opacity="1.000000" fill-rule="nonzero"/>
	<path id="Vector" d="M456.16 115.38C456.38 115.38 456.59 115.31 456.76 115.18C456.93 115.06 457.06 114.88 457.13 114.67L459.88 105.79C459.96 105.53 459.93 105.25 459.81 105.02C459.68 104.78 459.47 104.6 459.21 104.53C458.96 104.45 458.68 104.47 458.44 104.6C458.21 104.72 458.03 104.93 457.95 105.19L455.2 114.07C455.12 114.33 455.15 114.6 455.27 114.84C455.4 115.08 455.61 115.25 455.86 115.33C455.96 115.36 456.06 115.38 456.16 115.38Z" fill="#000000" fill-opacity="1.000000" fill-rule="nonzero"/>
	<path id="Vector" d="M417.43 121.68L405.38 160.07C400.52 150.85 380.67 123.94 368.55 114.56C353.17 102.66 321.94 101.45 321.94 101.45C321.94 101.45 295.02 100.81 288.35 101.34C277.18 102.22 236.21 104.14 220.7 130.02C209.43 148.82 189.13 187.72 197.25 213.17C204.72 236.6 243.77 229.76 243.77 229.76C243.77 229.76 239.81 266.49 240.08 266.48C240.08 266.48 315.47 271.16 314.54 270.9C314.51 270.9 314.47 270.79 314.41 270.63L365.82 268.51L366.8 214.98C367.18 241.22 398.97 245.95 409.59 241.22C444.6 225.62 447.19 178.6 462.04 135.94L417.43 121.68Z" fill="#000000" fill-opacity="1.000000" fill-rule="evenodd"/>
	<path id="Vector" d="M318.4 271.68C318.66 271.68 318.9 271.58 319.09 271.4C319.28 271.22 319.39 270.98 319.4 270.72C324.4 175.71 315.63 108.17 315.54 107.5C315.52 107.37 315.48 107.24 315.41 107.13C315.35 107.02 315.26 106.92 315.15 106.84C315.04 106.76 314.93 106.7 314.8 106.66C314.67 106.63 314.54 106.62 314.41 106.64C314.27 106.66 314.15 106.7 314.03 106.77C313.92 106.84 313.82 106.93 313.74 107.03C313.66 107.14 313.6 107.26 313.57 107.38C313.53 107.51 313.53 107.65 313.54 107.78C313.63 108.45 322.38 175.82 317.39 270.63C317.39 270.76 317.41 270.89 317.45 271.02C317.49 271.14 317.56 271.26 317.65 271.35C317.74 271.45 317.85 271.53 317.96 271.59C318.08 271.65 318.21 271.68 318.35 271.68L318.4 271.68Z" fill="#FFFFFF" fill-opacity="1.000000" fill-rule="nonzero"/>
	<path id="Vector" d="M329.48 164.75C329.48 166.8 330.68 168.45 332.17 168.45C333.65 168.45 334.85 166.8 334.85 164.75C334.85 162.71 333.65 161.06 332.17 161.06C330.69 161.06 329.48 162.71 329.48 164.75Z" fill="#FCF8F7" fill-opacity="1.000000" fill-rule="evenodd"/>
	<path id="Vector" d="M326.01 249.66C326.01 251.7 327.21 253.36 328.69 253.36C330.18 253.36 331.38 251.7 331.38 249.66C331.38 247.61 330.18 245.96 328.69 245.96C327.21 245.96 326.01 247.61 326.01 249.66Z" fill="#FCF8F7" fill-opacity="1.000000" fill-rule="evenodd"/>
	<path id="Vector" d="M328.69 204.94C328.69 206.99 329.9 208.64 331.38 208.64C332.86 208.64 334.07 206.99 334.07 204.94C334.07 202.9 332.86 201.25 331.38 201.25C329.9 201.25 328.69 202.9 328.69 204.94Z" fill="#FCF8F7" fill-opacity="1.000000" fill-rule="evenodd"/>
	<path id="Vector" d="M366.88 225.91C367.14 225.91 367.4 225.8 367.58 225.62C367.77 225.44 367.88 225.19 367.89 224.93C367.89 224.46 369.05 177.83 365.74 146.78C365.73 146.65 365.69 146.52 365.62 146.41C365.56 146.29 365.47 146.19 365.37 146.11C365.27 146.02 365.15 145.96 365.02 145.92C364.9 145.89 364.76 145.88 364.63 145.89C364.5 145.9 364.37 145.94 364.26 146.01C364.14 146.07 364.04 146.16 363.96 146.26C363.87 146.36 363.81 146.48 363.77 146.61C363.74 146.73 363.72 146.87 363.74 147C367.04 177.91 365.89 224.41 365.87 224.87C365.87 225.01 365.89 225.14 365.94 225.26C365.99 225.38 366.06 225.5 366.15 225.59C366.24 225.69 366.35 225.77 366.47 225.82C366.59 225.87 366.72 225.9 366.86 225.9L366.88 225.91Z" fill="#FFFFFF" fill-opacity="1.000000" fill-rule="nonzero"/>
	<path id="Vector" d="M396.11 184.41C396.32 184.41 396.51 184.35 396.68 184.24C396.85 184.12 396.97 183.96 397.05 183.78L406.32 160.44C406.42 160.19 406.41 159.91 406.3 159.67C406.2 159.42 406 159.23 405.75 159.13C405.5 159.03 405.23 159.04 404.98 159.14C404.74 159.25 404.54 159.45 404.44 159.7L395.18 183.03C395.08 183.28 395.09 183.55 395.19 183.8C395.29 184.04 395.49 184.24 395.73 184.34C395.86 184.39 395.98 184.41 396.11 184.41Z" fill="#FFFFFF" fill-opacity="1.000000" fill-rule="nonzero"/>
	<path id="Vector" d="M391.45 167.08C391.62 167.08 391.78 167.03 391.93 166.95L401.23 161.85C401.35 161.79 401.45 161.7 401.54 161.6C401.62 161.5 401.68 161.38 401.72 161.25C401.75 161.13 401.77 160.99 401.75 160.86C401.74 160.73 401.7 160.6 401.63 160.49C401.57 160.37 401.48 160.27 401.38 160.19C401.28 160.1 401.16 160.04 401.03 160C400.91 159.97 400.77 159.96 400.64 159.97C400.51 159.98 400.38 160.02 400.27 160.09L390.97 165.19C390.77 165.29 390.62 165.46 390.53 165.67C390.44 165.87 390.42 166.1 390.47 166.32C390.53 166.54 390.66 166.73 390.83 166.86C391.01 167 391.23 167.08 391.45 167.08L391.45 167.08Z" fill="#FFFFFF" fill-opacity="1.000000" fill-rule="nonzero"/>
	<path id="Vector" d="M283.81 201.02L285.63 179.94C287.94 172.9 293.29 166.07 296.57 163.94C303.57 159.39 326.96 161.03 327.13 164.77C327.3 168.5 305.39 172.09 305.39 172.09C305.39 172.09 323.71 179.24 323.85 182.76C323.99 186.28 317.76 186.43 317.76 186.43C317.76 186.43 320.66 190.64 318.66 193.43C316.67 196.22 315.14 196.14 315.14 196.14C315.14 196.14 319.46 200.03 314.38 201.05C309.29 202.06 298.79 198.51 298.79 198.51C298.79 198.51 292.95 213.17 281.84 213.17L283.81 201.02Z" fill="#FFAE99" fill-opacity="1.000000" fill-rule="evenodd"/>
	<path id="Vector" d="M251.47 182.81C251.71 182.81 251.93 182.73 252.11 182.58C252.29 182.43 252.42 182.22 252.46 181.99L259.28 147.66C259.31 147.4 259.25 147.14 259.1 146.93C258.95 146.71 258.73 146.57 258.47 146.52C258.22 146.47 257.96 146.52 257.74 146.66C257.52 146.79 257.36 147.01 257.3 147.26L250.48 181.6C250.43 181.86 250.49 182.13 250.63 182.35C250.78 182.57 251.01 182.73 251.28 182.78C251.34 182.8 251.41 182.81 251.47 182.81Z" fill="#FFFFFF" fill-opacity="1.000000" fill-rule="nonzero"/>
	<path id="Vector" d="M243.77 230.77L243.81 230.77L279.73 229.12C279.97 229.11 280.19 229.01 280.37 228.85C280.54 228.69 280.65 228.47 280.68 228.24L286.64 180.06C286.65 179.91 286.64 179.76 286.59 179.61C286.54 179.47 286.46 179.34 286.36 179.23C286.26 179.12 286.13 179.04 286 178.99C285.86 178.93 285.71 178.91 285.56 178.92L234.6 182.38C234.34 182.4 234.09 182.52 233.91 182.72C233.74 182.92 233.65 183.19 233.66 183.45C233.68 183.72 233.81 183.97 234.01 184.14C234.21 184.32 234.47 184.41 234.74 184.39L284.49 181.04L278.79 227.17L243.72 228.77C243.46 228.79 243.22 228.91 243.05 229.1C242.87 229.29 242.78 229.54 242.78 229.8C242.79 230.06 242.9 230.3 243.08 230.49C243.26 230.67 243.51 230.78 243.77 230.78L243.77 230.77Z" fill="#FFFFFF" fill-opacity="1.000000" fill-rule="nonzero"/>
	<path id="Vector" d="M354.61 333.07C354.86 333.07 355.11 332.97 355.29 332.8C355.48 332.62 355.59 332.38 355.61 332.13L356.92 313.57C358.42 296.87 348.54 280.94 332.91 274.85L332.84 274.82L314.84 269.26C314.58 269.18 314.31 269.21 314.07 269.33C313.84 269.46 313.66 269.67 313.58 269.93C313.5 270.18 313.53 270.46 313.65 270.69C313.78 270.93 313.99 271.11 314.25 271.19L332.21 276.74C339.44 279.6 345.55 284.71 349.64 291.32C353.73 297.92 355.58 305.67 354.92 313.41L353.6 332C353.59 332.26 353.67 332.52 353.85 332.72C354.02 332.93 354.27 333.05 354.54 333.07L354.61 333.07Z" fill="#000000" fill-opacity="1.000000" fill-rule="nonzero"/>
	<path id="Vector" d="M358.24 333.05C358.44 333.05 358.63 332.99 358.8 332.88C358.96 332.77 359.09 332.62 359.17 332.43L369.09 308.64C369.2 308.4 369.2 308.12 369.1 307.87C368.99 307.63 368.8 307.43 368.55 307.33C368.31 307.23 368.03 307.23 367.78 307.33C367.53 307.43 367.34 307.63 367.24 307.87L357.31 331.67C357.25 331.82 357.22 331.99 357.24 332.15C357.25 332.32 357.31 332.48 357.4 332.62C357.49 332.75 357.62 332.87 357.77 332.95C357.91 333.02 358.07 333.06 358.24 333.06L358.24 333.05Z" fill="#000000" fill-opacity="1.000000" fill-rule="nonzero"/>
	<path id="Vector" d="M278.36 333.05C278.63 333.05 278.88 332.95 279.07 332.76C279.26 332.57 279.37 332.31 279.37 332.05L279.37 308.86C279.37 308.59 279.26 308.34 279.07 308.15C278.88 307.96 278.63 307.85 278.36 307.85C278.09 307.85 277.84 307.96 277.65 308.15C277.46 308.34 277.35 308.59 277.35 308.86L277.35 332.05C277.35 332.31 277.46 332.57 277.65 332.76C277.84 332.95 278.09 333.05 278.36 333.05Z" fill="#000000" fill-opacity="1.000000" fill-rule="nonzero"/>
	<path id="Vector" d="M310.29 23.5C309.52 25.53 308.98 27.65 308.69 29.81C308.69 29.81 310.64 26.24 310.29 23.5Z" fill="#000000" fill-opacity="1.000000" fill-rule="nonzero"/>
	<path id="Vector" d="M323.37 42.24C322.54 40.56 321.78 39.12 321.18 38.03C320.8 37.33 320.21 36.78 319.49 36.44C318.78 36.11 317.97 36.01 317.2 36.17C310.95 37.45 296.87 41.84 293.36 44.44C289.43 47.35 293.15 60.15 297.43 67.87C297.85 68.62 298.18 69.41 298.41 70.24L294.26 74.89L286.72 96.24L314.55 107.64L317.82 104.82L322.22 84.42C337.68 76.54 328.96 53.64 323.37 42.24Z" fill="#FFAE99" fill-opacity="1.000000" fill-rule="nonzero"/>
	<path id="Vector" d="M319.05 51.05C319.19 51.05 319.33 51.02 319.45 50.96C319.58 50.91 319.7 50.83 319.79 50.72C319.82 50.69 321.5 48.94 323.38 49.59C323.51 49.64 323.64 49.66 323.77 49.66C323.91 49.65 324.04 49.62 324.16 49.56C324.28 49.51 324.39 49.43 324.48 49.33C324.57 49.23 324.64 49.11 324.68 48.98C324.73 48.86 324.75 48.72 324.74 48.59C324.73 48.45 324.69 48.32 324.64 48.2C324.57 48.08 324.49 47.98 324.39 47.89C324.29 47.8 324.17 47.74 324.04 47.69C320.9 46.59 318.41 49.25 318.31 49.36C318.22 49.46 318.15 49.57 318.1 49.7C318.06 49.82 318.04 49.95 318.04 50.08C318.05 50.22 318.08 50.35 318.14 50.47C318.19 50.59 318.27 50.69 318.37 50.78C318.56 50.95 318.8 51.05 319.05 51.05Z" fill="#000000" fill-opacity="1.000000" fill-rule="nonzero"/>
	<path id="Vector" d="M305.81 57.44C306.04 57.44 306.26 57.36 306.44 57.22C306.62 57.07 306.75 56.87 306.79 56.64C306.87 56.3 307.65 53.34 311.74 54C311.87 54.02 312.01 54.02 312.14 53.98C312.26 53.95 312.39 53.9 312.49 53.82C312.6 53.74 312.69 53.65 312.76 53.53C312.83 53.42 312.87 53.29 312.9 53.16C312.92 53.03 312.91 52.9 312.88 52.77C312.85 52.64 312.79 52.52 312.72 52.41C312.64 52.31 312.54 52.22 312.43 52.15C312.32 52.08 312.19 52.03 312.06 52.01C307.19 51.24 305.2 54.43 304.83 56.23C304.78 56.49 304.83 56.76 304.98 56.98C305.12 57.21 305.35 57.36 305.61 57.42C305.68 57.43 305.74 57.44 305.81 57.44Z" fill="#000000" fill-opacity="1.000000" fill-rule="nonzero"/>
	<path id="Vector" d="M309.38 59.66C309.19 59.15 308.97 58.64 308.83 58.11C308.63 57.7 308.92 57.14 309.35 56.96C309.42 56.94 309.49 56.93 309.56 56.92C309.69 56.87 309.84 56.86 309.97 56.9C310.11 56.94 310.23 57.03 310.31 57.15C310.31 57.16 310.33 57.18 310.34 57.2C310.4 57.27 310.45 57.34 310.5 57.42C310.74 57.91 310.95 58.42 311.14 58.93C311.36 59.48 311.58 59.9 311.34 60.49C311.25 60.68 311.1 60.83 310.91 60.91C310.72 60.99 310.51 60.99 310.31 60.92C309.71 60.67 309.58 60.21 309.38 59.66Z" fill="#000000" fill-opacity="1.000000" fill-rule="nonzero"/>
	<path id="Vector" d="M322.9 54.86C322.69 54.35 322.5 53.84 322.35 53.32C322.14 52.9 322.44 52.34 322.86 52.17C322.93 52.14 323 52.13 323.07 52.12C323.2 52.07 323.35 52.06 323.49 52.1C323.62 52.14 323.74 52.23 323.82 52.34L323.85 52.4C323.91 52.47 323.97 52.54 324.01 52.62C324.25 53.11 324.47 53.62 324.65 54.13C324.88 54.68 325.1 55.1 324.85 55.69C324.76 55.88 324.61 56.03 324.42 56.11C324.23 56.19 324.02 56.19 323.82 56.12C323.23 55.87 323.11 55.41 322.9 54.86Z" fill="#000000" fill-opacity="1.000000" fill-rule="nonzero"/>
	<path id="Vector" d="M318.38 73.41C320.24 73.41 321.81 72.09 322.51 71.14C322.66 70.93 322.73 70.66 322.69 70.4C322.65 70.14 322.51 69.91 322.3 69.75C322.09 69.59 321.82 69.52 321.57 69.55C321.3 69.59 321.07 69.72 320.9 69.93C320.72 70.16 319.09 72.19 317.23 71.04C316.01 70.29 316.35 68.51 316.36 68.44C316.41 68.18 316.35 67.91 316.21 67.7C316.06 67.48 315.84 67.33 315.58 67.27C315.32 67.22 315.06 67.26 314.83 67.41C314.61 67.55 314.46 67.77 314.39 68.02C314.37 68.15 313.73 71.25 316.17 72.76C316.83 73.18 317.6 73.41 318.38 73.41Z" fill="#000000" fill-opacity="1.000000" fill-rule="nonzero"/>
	<path id="Vector" d="M325.47 67.66C325.67 67.66 325.87 67.61 326.04 67.49C326.2 67.38 326.33 67.22 326.41 67.04C326.59 66.6 328.09 62.71 326.35 60.38C325.47 59.19 323.99 59 322.56 58.8C320.93 58.57 319.4 58.36 318.38 56.96C316.57 54.48 318.93 51.18 318.95 51.14C319.11 50.92 319.18 50.65 319.14 50.39C319.1 50.12 318.95 49.89 318.74 49.73C318.52 49.57 318.25 49.51 317.99 49.55C317.72 49.59 317.49 49.73 317.33 49.95C317.2 50.13 314.08 54.45 316.75 58.14C318.27 60.24 320.5 60.55 322.29 60.79C323.39 60.94 324.36 61.06 324.74 61.58C325.64 62.79 324.88 65.43 324.54 66.28C324.48 66.43 324.46 66.6 324.48 66.76C324.5 66.92 324.55 67.08 324.65 67.21C324.74 67.35 324.86 67.46 325.01 67.54C325.15 67.62 325.31 67.66 325.47 67.66L325.47 67.66Z" fill="#000000" fill-opacity="1.000000" fill-rule="nonzero"/>
	<path id="Vector" d="M312.34 84.05C312.07 84 311.79 84.02 311.53 84.11C311.26 84.2 311.04 84.36 310.86 84.58C310.69 84.79 310.57 85.05 310.53 85.32C310.49 85.6 310.53 85.88 310.64 86.13L319.05 99.06L322.42 84.17L312.34 84.05Z" fill="#EA8165" fill-opacity="1.000000" fill-rule="nonzero"/>
	<path id="Vector" d="M330.92 22.7C330.06 14.18 318.12 12.53 313.82 17.38C312.2 19.22 310.39 22.44 310.29 23.5C310.1 21.95 309.19 20.67 306.79 20.43C300.12 19.75 298.99 29.03 298.99 29.03C298.99 29.03 281.69 27.14 273.53 44.2C267.15 57.55 274.91 69.67 290.76 84.76C290.76 84.76 297.02 81.18 298.77 74.33C299.28 72.31 298.64 70.03 297.43 67.87C295.82 64.9 294.49 61.79 293.46 58.58C296 57.56 297.86 54.39 297.86 50.64C297.86 47.62 296.66 44.99 294.87 43.54C299.85 40.92 311.64 37.31 317.2 36.17C317.98 36.01 318.79 36.11 319.5 36.44C320.22 36.78 320.81 37.33 321.19 38.03C321.79 39.13 322.55 40.56 323.38 42.24C325.39 39.38 331.66 29.87 330.92 22.7Z" fill="#1A1A1A" fill-opacity="1.000000" fill-rule="nonzero"/>
	<path id="Vector" d="M300.84 72.79C299.11 74.99 295.34 75.16 292.44 73.17C289.53 71.18 288.57 67.79 290.3 65.59C292.03 63.4 295.8 63.22 298.71 65.21C301.61 67.19 302.57 70.59 300.84 72.79Z" fill="#FFAE99" fill-opacity="1.000000" fill-rule="nonzero"/>
	<path id="Vector" d="M299.96 71.62C300.08 71.63 300.2 71.6 300.31 71.56C300.56 71.47 300.76 71.28 300.87 71.04C300.99 70.79 301 70.52 300.9 70.27C299.16 65.59 294.15 65.32 291.75 65.82C291.62 65.84 291.49 65.9 291.38 65.97C291.27 66.05 291.18 66.14 291.11 66.25C291.04 66.36 290.99 66.49 290.96 66.62C290.94 66.75 290.94 66.88 290.97 67.01C290.99 67.14 291.04 67.26 291.12 67.37C291.19 67.48 291.29 67.57 291.4 67.65C291.51 67.72 291.63 67.77 291.76 67.79C291.89 67.82 292.03 67.82 292.16 67.79C292.39 67.74 297.45 66.76 299.02 70.97C299.09 71.16 299.22 71.33 299.39 71.44C299.55 71.56 299.75 71.62 299.96 71.62Z" fill="#000000" fill-opacity="1.000000" fill-rule="nonzero"/>
	<path id="Vector" d="M330.92 103.36L321.63 87.62L313.83 104.78L290.22 86.3L276.91 102.41L301.72 128.12L314.54 107.63L328.95 126.54L330.92 103.36Z" fill="#000000" fill-opacity="1.000000" fill-rule="evenodd"/>
	<path id="Vector" d="M301.72 129.13C301.77 129.13 301.81 129.13 301.85 129.13C302 129.11 302.14 129.06 302.27 128.98C302.39 128.89 302.5 128.79 302.58 128.66L314.63 109.41L328.15 127.14C328.27 127.3 328.44 127.43 328.63 127.49C328.83 127.55 329.03 127.56 329.23 127.5C329.42 127.44 329.6 127.33 329.73 127.17C329.86 127.02 329.93 126.82 329.95 126.62L331.92 104.07C331.94 103.94 331.93 103.8 331.89 103.67C331.85 103.54 331.79 103.43 331.7 103.32C331.62 103.22 331.51 103.13 331.39 103.07C331.27 103.01 331.14 102.97 331.01 102.96C330.88 102.94 330.74 102.96 330.61 103C330.49 103.04 330.37 103.11 330.27 103.2C330.17 103.28 330.08 103.39 330.02 103.51C329.96 103.63 329.93 103.76 329.92 103.89L328.17 123.85L315.34 107.02C315.24 106.89 315.12 106.79 314.97 106.72C314.82 106.65 314.66 106.62 314.5 106.63C314.34 106.63 314.18 106.68 314.04 106.76C313.9 106.85 313.78 106.96 313.69 107.1L301.53 126.54L279.06 105.07C278.96 104.97 278.85 104.89 278.72 104.84C278.6 104.78 278.46 104.76 278.33 104.76C278.19 104.76 278.06 104.79 277.93 104.84C277.81 104.89 277.7 104.97 277.6 105.07C277.51 105.17 277.44 105.28 277.39 105.41C277.34 105.54 277.32 105.67 277.32 105.81C277.33 105.94 277.37 106.08 277.42 106.2C277.48 106.32 277.57 106.43 277.67 106.52L301.04 128.85C301.23 129.02 301.47 129.12 301.72 129.13Z" fill="#000000" fill-opacity="1.000000" fill-rule="nonzero"/>
	<path id="Vector" d="M308.01 172.99C308.25 172.99 308.48 172.91 308.66 172.76C308.84 172.61 308.96 172.39 309 172.16C309.04 171.92 309 171.68 308.88 171.48C308.76 171.27 308.57 171.12 308.35 171.04L301.56 168.62C301.31 168.53 301.03 168.55 300.79 168.66C300.55 168.77 300.36 168.98 300.27 169.23C300.18 169.48 300.2 169.76 300.31 170C300.43 170.24 300.63 170.43 300.88 170.52L307.67 172.94C307.78 172.97 307.89 172.99 308.01 172.99Z" fill="#000000" fill-opacity="1.000000" fill-rule="nonzero"/>
	<path id="Vector" d="M319.68 188.28C319.91 188.28 320.13 188.2 320.31 188.06C320.49 187.91 320.61 187.71 320.65 187.48C320.7 187.26 320.67 187.03 320.57 186.82C320.46 186.62 320.29 186.45 320.08 186.36L301.82 178.35C301.58 178.24 301.3 178.23 301.05 178.33C300.8 178.43 300.6 178.62 300.5 178.86C300.39 179.11 300.38 179.39 300.48 179.63C300.58 179.88 300.77 180.08 301.01 180.19L319.28 188.19C319.41 188.25 319.54 188.28 319.68 188.28Z" fill="#000000" fill-opacity="1.000000" fill-rule="nonzero"/>
	<path id="Vector" d="M316.29 197.69C316.52 197.7 316.75 197.62 316.93 197.48C317.11 197.34 317.24 197.13 317.29 196.91C317.34 196.68 317.31 196.44 317.21 196.24C317.1 196.03 316.93 195.86 316.72 195.77L300.32 188.11C300.21 188.05 300.07 188.01 299.94 188C299.81 188 299.67 188.02 299.55 188.06C299.42 188.11 299.31 188.17 299.21 188.26C299.11 188.35 299.03 188.46 298.97 188.58C298.92 188.7 298.88 188.84 298.88 188.97C298.87 189.1 298.89 189.24 298.94 189.36C298.99 189.49 299.06 189.6 299.15 189.7C299.24 189.8 299.35 189.87 299.47 189.93L315.86 197.59C316 197.66 316.14 197.69 316.29 197.69Z" fill="#000000" fill-opacity="1.000000" fill-rule="nonzero"/>
	<path id="Vector" d="M464.97 118.58C465.17 118.58 465.36 118.52 465.52 118.42C465.68 118.31 465.81 118.16 465.89 117.98C466.5 116.64 475.58 98.14 475.67 97.96C475.79 97.72 475.81 97.44 475.72 97.19C475.63 96.94 475.45 96.73 475.21 96.61C474.97 96.49 474.69 96.48 474.44 96.56C474.19 96.65 473.98 96.83 473.86 97.07C473.49 97.83 464.68 115.77 464.06 117.15C463.99 117.3 463.96 117.47 463.97 117.64C463.98 117.8 464.04 117.96 464.13 118.11C464.22 118.25 464.35 118.36 464.49 118.44C464.64 118.52 464.81 118.57 464.97 118.57L464.97 118.58Z" fill="#000000" fill-opacity="1.000000" fill-rule="nonzero"/>
	<path id="Vector" d="M472.97 121.11C473.16 121.12 473.35 121.06 473.51 120.96C473.67 120.86 473.8 120.71 473.88 120.54L482.99 101.34C483.1 101.1 483.12 100.83 483.03 100.57C482.94 100.32 482.75 100.12 482.51 100C482.27 99.89 481.99 99.87 481.74 99.96C481.49 100.05 481.28 100.24 481.17 100.48L472.07 119.68C472.01 119.8 471.98 119.93 471.97 120.06C471.96 120.19 471.98 120.32 472.03 120.45C472.07 120.57 472.14 120.69 472.23 120.78C472.32 120.88 472.43 120.96 472.55 121.02C472.68 121.08 472.83 121.12 472.97 121.11Z" fill="#000000" fill-opacity="1.000000" fill-rule="nonzero"/>
	<path id="Vector" d="M301.72 129.13L301.83 129.13C301.98 129.11 302.13 129.06 302.26 128.98C302.39 128.9 302.5 128.79 302.58 128.66L314.63 109.41L328.15 127.14C328.27 127.3 328.44 127.43 328.63 127.49C328.83 127.55 329.03 127.56 329.23 127.5C329.42 127.44 329.6 127.33 329.73 127.17C329.86 127.02 329.93 126.82 329.95 126.62L332.02 102.33C332.03 102.2 332.02 102.07 331.98 101.94C331.95 101.81 331.88 101.69 331.8 101.58C331.71 101.48 331.61 101.39 331.49 101.33C331.37 101.26 331.24 101.23 331.1 101.21C330.97 101.2 330.83 101.22 330.7 101.26C330.58 101.3 330.46 101.37 330.36 101.46C330.25 101.55 330.17 101.66 330.11 101.78C330.05 101.9 330.02 102.03 330.01 102.16L328.17 123.84L315.34 107.02C315.24 106.89 315.12 106.78 314.97 106.71C314.82 106.65 314.66 106.61 314.5 106.62C314.34 106.63 314.18 106.68 314.04 106.76C313.9 106.84 313.78 106.95 313.69 107.09L301.56 126.49L277.63 101.71C277.45 101.52 277.19 101.41 276.93 101.41C276.66 101.4 276.41 101.5 276.21 101.69C276.02 101.87 275.91 102.12 275.91 102.39C275.9 102.66 276 102.91 276.18 103.1L301 128.81C301.09 128.91 301.2 128.99 301.33 129.04C301.45 129.1 301.59 129.12 301.72 129.13Z" fill="#FFFFFF" fill-opacity="1.000000" fill-rule="nonzero"/>
	<path id="Vector" d="M1226.07 368.8C1218.36 371.07 1209.76 373.33 1201.31 374.66C1193.29 375.66 1184.43 377.45 1175.9 377.33C1167.36 377.21 1159.14 375.15 1152.38 368.43C1145.46 360.23 1147.18 349.05 1155.64 341.34C1189.48 326.22 1224.43 310.7 1262.12 310.29C1270.07 310.21 1278.09 311.91 1285.18 315.59C1298.06 322.28 1306.77 335.16 1307 349.77C1307.17 377.46 1277.07 381.09 1250.39 376.1C1241.5 374.44 1232.98 371.81 1226.13 368.79C1226.12 368.79 1226.1 368.79 1226.07 368.8Z" fill="#4761FF" fill-opacity="1.000000" fill-rule="nonzero"/>
	<path id="Vector" d="M793.43 261.18C788.41 250.31 757.23 182.8 787.22 149.24C814.54 118.66 878.53 132.02 915.5 149.38C972.97 176.35 972.35 216.34 1011.52 220.14C1060.13 224.85 1082.38 165.34 1133.98 173.47C1154.72 176.74 1181.31 191.1 1184.6 210.19C1194.79 269.2 987.79 405.04 866.2 340.67C819.4 315.86 796.2 267.18 793.43 261.18Z" fill="#5970FF" fill-opacity="1.000000" fill-rule="nonzero"/>
</svg>
